<?xml version="1.0" encoding="utf-8"?>
<!-- Generator: Adobe Illustrator 24.0.2, SVG Export Plug-In . SVG Version: 6.00 Build 0)  -->
<svg version="1.0" id="Camada_1" xmlns="http://www.w3.org/2000/svg" xmlns:xlink="http://www.w3.org/1999/xlink" x="0px" y="0px"
	 viewBox="0 0 841.89 595.28" style="enable-background:new 0 0 841.89 595.28;" xml:space="preserve">
<style type="text/css">
	.st0{enable-background:new    ;}
	.st1{fill:#FFFFFF;}
</style>
<g>
	<g class="st0">
		<path class="st1" d="M143.27,178.16c3.17,0,5.52,0.79,7.06,2.38c1.54,1.59,2.31,3.68,2.31,6.29v37.59c0,3.17-1.03,5.73-3.07,7.69
			c-2.05,1.96-4.43,2.93-7.13,2.93H106.8c-6.71,0-13.04-1.26-19-3.77c-5.96-2.51-11.13-5.92-15.51-10.2
			c-4.38-4.28-7.85-9.31-10.41-15.09c-2.56-5.77-3.84-11.92-3.84-18.44s1.28-12.67,3.84-18.45c2.56-5.78,6.03-10.81,10.41-15.09
			c4.38-4.28,9.55-7.68,15.51-10.2c5.96-2.51,12.3-3.77,19-3.77h37.17c2.61,0,4.7,0.77,6.29,2.31c1.58,1.54,2.38,3.89,2.38,7.06
			c0,3.17-0.84,5.52-2.52,7.06c-1.68,1.54-3.73,2.31-6.15,2.31H106.8c-4.01,0-7.8,0.75-11.39,2.24c-3.59,1.49-6.73,3.54-9.43,6.15
			c-2.7,2.61-4.84,5.68-6.43,9.22c-1.59,3.54-2.38,7.31-2.38,11.32c0,3.91,0.79,7.62,2.38,11.11c1.58,3.49,3.7,6.52,6.36,9.08
			c2.66,2.56,5.68,4.61,9.08,6.15c3.4,1.54,6.92,2.31,10.55,2.31h22.36c1.86,0,3.28-0.3,4.26-0.91c0.98-0.61,1.47-1.79,1.47-3.56
			v-25.02c0-2.42,0.81-4.47,2.44-6.15C137.7,179,140.1,178.16,143.27,178.16z"/>
		<path class="st1" d="M251.92,232.66c-1.54-1.58-2.31-3.68-2.31-6.29v-19.99c0-2.7-0.93-4.98-2.8-6.85
			c-1.86-1.86-4.15-2.8-6.85-2.8h-23.06c-2.8,0-5.15-0.86-7.06-2.59c-1.91-1.72-2.86-3.93-2.86-6.64c0-2.7,0.95-4.91,2.86-6.64
			c1.91-1.72,4.26-2.59,7.06-2.59h23.06c2.7,0,4.98-0.93,6.85-2.8c1.86-1.86,2.8-4.14,2.8-6.85c0-2.7-0.93-5.03-2.8-6.99
			c-1.86-1.96-4.15-2.93-6.85-2.93h-41.37c-1.86,0-3.28,0.3-4.26,0.91c-0.98,0.61-1.47,1.8-1.47,3.56v63.16
			c0,2.42-0.82,4.47-2.45,6.15c-1.63,1.68-4.03,2.51-7.2,2.51c-3.17,0-5.52-0.79-7.06-2.38c-1.54-1.58-2.31-3.68-2.31-6.29v-75.74
			c0-3.17,1.02-5.73,3.07-7.68c2.05-1.96,4.42-2.94,7.13-2.94h54.5c4.19,0,8.11,0.75,11.74,2.24c3.63,1.49,6.8,3.54,9.5,6.15
			c2.7,2.61,4.84,5.66,6.43,9.15c1.58,3.49,2.38,7.2,2.38,11.11c0,3.73-0.68,7.2-2.03,10.41c-1.35,3.21-3.24,6.03-5.66,8.46
			c2.42,2.51,4.31,5.38,5.66,8.59c1.35,3.21,2.03,6.64,2.03,10.27v19.99c0,2.42-0.82,4.47-2.45,6.15c-1.63,1.68-4.03,2.51-7.2,2.51
			C255.81,235.04,253.46,234.25,251.92,232.66z"/>
		<path class="st1" d="M293.64,169.08c2.52-5.78,5.99-10.83,10.41-15.16c4.42-4.33,9.59-7.76,15.51-10.27
			c5.91-2.52,12.23-3.77,18.94-3.77c6.71,0,13.04,1.26,19,3.77c5.96,2.51,11.13,5.94,15.51,10.27c4.38,4.33,7.85,9.38,10.41,15.16
			c2.56,5.78,3.84,11.93,3.84,18.45s-1.28,12.67-3.84,18.44c-2.56,5.78-6.03,10.83-10.41,15.16c-4.38,4.33-9.55,7.76-15.51,10.27
			c-5.96,2.51-12.3,3.77-19,3.77c-6.71,0-13.02-1.26-18.94-3.77c-5.92-2.52-11.09-5.94-15.51-10.27c-4.43-4.33-7.9-9.38-10.41-15.16
			c-2.52-5.77-3.77-11.92-3.77-18.44S291.12,174.85,293.64,169.08z M311.24,198.91c1.58,3.5,3.73,6.55,6.43,9.15
			c2.7,2.61,5.84,4.66,9.43,6.15c3.59,1.49,7.38,2.24,11.39,2.24c4,0,7.8-0.75,11.39-2.24c3.59-1.49,6.73-3.54,9.43-6.15
			c2.7-2.61,4.84-5.66,6.43-9.15c1.58-3.49,2.38-7.24,2.38-11.25c0-4-0.79-7.78-2.38-11.32c-1.59-3.54-3.73-6.61-6.43-9.22
			c-2.7-2.61-5.85-4.68-9.43-6.22c-3.59-1.54-7.38-2.31-11.39-2.31c-4.01,0-7.8,0.77-11.39,2.31c-3.59,1.54-6.73,3.61-9.43,6.22
			c-2.7,2.61-4.84,5.68-6.43,9.22c-1.59,3.54-2.38,7.31-2.38,11.32C308.87,191.67,309.66,195.42,311.24,198.91z"/>
		<path class="st1" d="M565.37,143.99c0.98,1.35,1.47,2.82,1.47,4.4c0,0.75-0.23,2.05-0.7,3.91l-30.19,77.42
			c-0.65,1.68-1.61,3-2.86,3.98c-1.26,0.98-2.82,1.47-4.68,1.47h-15.37c-1.87,0-3.42-0.49-4.68-1.47c-1.26-0.98-2.21-2.3-2.87-3.98
			l-20.82-53.38l-20.82,53.38c-0.65,1.68-1.61,3-2.86,3.98c-1.26,0.98-2.82,1.47-4.68,1.47h-15.37c-1.86,0-3.42-0.49-4.68-1.47
			c-1.26-0.98-2.21-2.3-2.86-3.98l-30.18-77.42c-0.47-1.86-0.7-3.17-0.7-3.91c0-1.58,0.49-3.05,1.47-4.4
			c0.98-1.35,2.59-2.4,4.82-3.14c0.84-0.37,1.61-0.61,2.31-0.7c0.7-0.09,1.42-0.14,2.17-0.14c3.82,0,6.38,1.77,7.69,5.31
			l27.67,70.57l26.41-67.5c1.02-2.7,2.14-4.77,3.35-6.22c1.21-1.44,3.08-2.17,5.59-2.17h1.4c2.05,0,3.82,0.61,5.31,1.82
			c0.75,0.93,1.44,1.96,2.1,3.07c0.65,1.12,1.3,2.66,1.96,4.61l25.99,66.38l27.67-70.57c1.4-3.54,3.96-5.31,7.69-5.31
			c0.75,0,1.47,0.05,2.17,0.14c0.7,0.09,1.47,0.33,2.31,0.7C562.79,141.59,564.39,142.64,565.37,143.99z"/>
		<path class="st1" d="M657.39,235.04c-3.17,0-5.5-0.79-6.99-2.38c-1.49-1.58-2.24-3.68-2.24-6.29v-77.7c0-2.42,0.82-4.47,2.45-6.15
			c1.63-1.68,4.03-2.52,7.2-2.52c3.17,0,5.52,0.79,7.06,2.38c1.54,1.59,2.3,3.68,2.3,6.29v77.7c0,2.42-0.84,4.47-2.51,6.15
			C662.98,234.2,660.56,235.04,657.39,235.04z"/>
		<path class="st1" d="M698.62,235.04c-3.17,0-5.5-0.79-6.99-2.38c-1.49-1.58-2.24-3.68-2.24-6.29v-77.7c0-2.42,0.82-4.47,2.45-6.15
			c1.63-1.68,4.03-2.52,7.2-2.52c0.37,0,0.84,0.07,1.4,0.21c0.56,0.14,1.02,0.26,1.4,0.35c0.28,0,0.7,0.14,1.26,0.42
			c0.56,0.28,1.54,1.05,2.93,2.31c1.4,1.26,3.42,3.19,6.08,5.8c2.66,2.61,6.26,6.22,10.83,10.83c4.56,4.61,10.25,10.43,17.05,17.47
			c6.8,7.04,15.09,15.63,24.87,25.78v-54.5c0-2.42,0.82-4.47,2.45-6.15c1.63-1.68,4.03-2.52,7.2-2.52c3.17,0,5.52,0.79,7.06,2.38
			c1.54,1.59,2.31,3.68,2.31,6.29v77.7c0,2.42-0.84,4.47-2.51,6.15c-1.68,1.68-4.1,2.51-7.27,2.51c-2.05,0-3.68-0.33-4.89-0.98
			c-0.75-0.56-1.77-1.47-3.07-2.72c-1.31-1.26-3.24-3.17-5.8-5.73c-2.56-2.56-6.1-6.13-10.62-10.69
			c-4.52-4.56-10.13-10.29-16.84-17.19c-6.71-6.89-14.86-15.32-24.46-25.29v53.94c0,2.42-0.84,4.47-2.51,6.15
			C704.21,234.2,701.78,235.04,698.62,235.04z"/>
	</g>
	<g class="st0">
		<path class="st1" d="M125.95,451.49c-2.54-2.61-3.81-5.8-3.81-9.58v-99.48c-0.29-2.32-1.16-3.88-2.61-4.68
			c-1.45-0.8-3.56-1.2-6.31-1.2H81.65c-3.78,0-6.97-1.2-9.58-3.59c-2.61-2.39-3.92-6.06-3.92-10.99c0-4.93,1.23-8.6,3.7-10.99
			c2.47-2.4,5.73-3.59,9.8-3.59h110.36c4.06,0,7.33,1.16,9.8,3.48c2.47,2.32,3.7,5.95,3.7,10.88c0,4.94-1.31,8.6-3.92,10.99
			c-2.61,2.39-5.81,3.59-9.58,3.59h-31.34c-2.91,0-5.12,0.47-6.64,1.41c-1.52,0.94-2.29,2.8-2.29,5.55v98.61
			c0,4.07-1.2,7.33-3.59,9.8c-2.39,2.47-6.06,3.7-10.99,3.7C132.23,455.41,128.49,454.1,125.95,451.49z"/>
		<path class="st1" d="M244.91,323.93c0-4.93,1.6-8.93,4.79-11.97c3.19-3.05,6.89-4.57,11.1-4.57h117.98c4.06,0,7.33,1.2,9.8,3.59
			c2.47,2.39,3.7,6.06,3.7,10.99c0,4.94-1.31,8.6-3.92,10.99c-2.61,2.39-5.81,3.59-9.58,3.59h-95.34c-2.9,0-5.12,0.43-6.64,1.3
			c-1.52,0.87-2.29,2.54-2.29,5.01v16.98c0,4.5,2.03,6.82,6.1,6.97h45.06c3.77,0.29,6.82,1.63,9.14,4.03
			c2.32,2.4,3.48,5.92,3.48,10.56c0,4.94-1.31,8.6-3.92,10.99c-2.61,2.39-5.81,3.59-9.58,3.59h-41.36c-2.76,0-4.86,0.4-6.31,1.2
			c-1.45,0.8-2.32,2.36-2.61,4.68v17.41c0,2.76,0.76,4.61,2.29,5.55c1.52,0.95,3.73,1.42,6.64,1.42h95.34c3.77,0,6.97,1.2,9.58,3.59
			c2.61,2.39,3.92,6.06,3.92,10.99c0,4.93-1.23,8.6-3.7,10.99c-2.47,2.4-5.73,3.59-9.8,3.59H260.8c-5.08,0-9-1.6-11.75-4.79
			c-2.76-3.19-4.14-7.32-4.14-12.41V323.93z"/>
		<path class="st1" d="M565.55,455.41h-57.9c-10.45,0-20.32-1.96-29.6-5.88c-9.29-3.92-17.34-9.21-24.16-15.89
			c-6.82-6.67-12.23-14.51-16.22-23.51c-3.99-9-5.99-18.58-5.99-28.73c0-10.16,1.99-19.73,5.99-28.73
			c3.99-8.99,9.39-16.83,16.22-23.51c6.82-6.67,14.87-11.97,24.16-15.89c9.29-3.92,19.16-5.88,29.6-5.88h57.9
			c4.06,0,7.33,1.2,9.8,3.59c2.46,2.39,3.7,6.06,3.7,10.99c0,4.94-1.31,8.6-3.92,10.99c-2.61,2.39-5.81,3.59-9.58,3.59h-57.9
			c-6.24,0-12.16,1.16-17.74,3.48c-5.59,2.32-10.48,5.52-14.69,9.58c-4.21,4.07-7.55,8.85-10.01,14.37
			c-2.47,5.52-3.7,11.39-3.7,17.63c0,6.09,1.23,11.86,3.7,17.31c2.47,5.44,5.77,10.16,9.9,14.15c4.14,3.99,8.85,7.19,14.15,9.58
			c5.29,2.39,10.77,3.59,16.43,3.59h59.86c3.77,0,6.97,1.2,9.58,3.59c2.61,2.39,3.92,6.06,3.92,10.99c0,4.93-1.24,8.6-3.7,10.99
			C572.88,454.21,569.62,455.41,565.55,455.41z"/>
		<path class="st1" d="M622.37,451.49c-2.61-2.61-3.92-5.8-3.92-9.58V320.88c0-4.06,1.2-7.33,3.59-9.8c2.39-2.46,6.06-3.7,10.99-3.7
			c4.93,0,8.67,1.31,11.21,3.92c2.54,2.61,3.81,5.81,3.81,9.58v121.03c0,4.07-1.17,7.33-3.48,9.8c-2.33,2.47-5.95,3.7-10.89,3.7
			S624.98,454.1,622.37,451.49z M739.92,451.49c-2.61-2.61-3.92-5.8-3.92-9.58v-40.27c-0.29-2.32-1.16-3.88-2.61-4.68
			c-1.45-0.8-3.56-1.2-6.31-1.2h-41.36c-3.78,0-6.97-1.2-9.58-3.59c-2.61-2.4-3.92-6.06-3.92-10.99c0-4.93,1.23-8.6,3.7-10.99
			c2.46-2.39,5.73-3.59,9.79-3.59h43.1c4.79,0,7.18-2.32,7.18-6.97v-38.75c0-4.06,1.2-7.33,3.59-9.8c2.39-2.46,6.06-3.7,10.99-3.7
			c4.93,0,8.67,1.31,11.21,3.92c2.54,2.61,3.81,5.81,3.81,9.58v121.03c0,4.07-1.16,7.33-3.48,9.8c-2.32,2.47-5.95,3.7-10.88,3.7
			C746.3,455.41,742.53,454.1,739.92,451.49z"/>
	</g>
</g>
</svg>
